<svg xmlns="http://www.w3.org/2000/svg" width="24" height="24" viewBox="0 0 24 24"><defs><style>.a{fill:rgba(255,19,220,0);}.b{fill:#b3b3b3;}.c{fill:none;}</style></defs><rect class="a" width="18" height="18" transform="translate(3 3)"/><rect class="b" width="5" height="1" transform="translate(13 8)"/><rect class="b" width="5" height="1" transform="translate(13 12)"/><rect class="b" width="6" height="1" transform="translate(6 14)"/><rect class="b" width="5" height="1" transform="translate(13 10)"/><rect class="b" width="5" height="1" transform="translate(13 14)"/><rect class="b" width="6" height="5" transform="translate(6 8)"/><path class="b" d="M19.5,5H4.5a.5.5,0,0,0-.5.5v12a.5.5,0,0,0,.5.5h15a.5.5,0,0,0,.5-.5V5.5A.5.5,0,0,0,19.5,5ZM5,17V6H19V17Z"/><rect class="c" width="24" height="24" transform="translate(0 0)"/></svg>