<svg xmlns="http://www.w3.org/2000/svg" xmlns:xlink="http://www.w3.org/1999/xlink" width="157" height="24" viewBox="0 0 157 24"><defs><style>.a{fill:#dc3d14;}.b{fill:#003a8a;}.c{fill:#00a29d;}.d{fill:url(#a);}.e{fill:url(#b);}.f{fill:url(#c);}.g{fill:url(#d);}.h{fill:url(#e);}.i{fill:url(#f);}.j{fill:url(#g);}</style><linearGradient id="a" x1="7.758" y1="0.5" x2="0.195" y2="0.5" gradientUnits="objectBoundingBox"><stop offset="0" stop-color="#003a8a"/><stop offset="1" stop-color="#00a29d"/></linearGradient><linearGradient id="b" x1="6.708" y1="0.5" x2="-0.949" y2="0.5" xlink:href="#a"/><linearGradient id="c" x1="5.601" y1="0.5" x2="-2.179" y2="0.5" xlink:href="#a"/><linearGradient id="d" x1="16.144" y1="0.5" x2="-12.097" y2="0.5" xlink:href="#a"/><linearGradient id="e" x1="3.899" y1="0.5" x2="-3.664" y2="0.5" xlink:href="#a"/><linearGradient id="f" x1="2.645" y1="0.5" x2="-4.508" y2="0.5" xlink:href="#a"/><linearGradient id="g" x1="1.134" y1="0.5" x2="-4.282" y2="0.5" xlink:href="#a"/></defs><g transform="translate(18.458)"><path class="a" d="M208.366,117.9a1.782,1.782,0,0,1,1.249.521,1.714,1.714,0,0,1-.038,2.46l-2.619,2.5a1.8,1.8,0,0,1-1.265.5,1.776,1.776,0,0,1-1.249-.522,1.714,1.714,0,0,1,.038-2.46l2.62-2.5A1.8,1.8,0,0,1,208.366,117.9Z" transform="translate(-203.942 -117.898)"/></g><g transform="translate(18.611 7.276)"><path class="b" d="M206.471,153.676a1.784,1.784,0,0,1,1.249.52l2.54,2.551a1.694,1.694,0,0,1,.5,1.236,1.714,1.714,0,0,1-.54,1.225,1.8,1.8,0,0,1-1.264.5,1.775,1.775,0,0,1-1.249-.522l-2.541-2.551a1.716,1.716,0,0,1,.039-2.461A1.805,1.805,0,0,1,206.471,153.676Z" transform="translate(-204.667 -153.676)"/></g><g transform="translate(0 1.251)"><path class="b" d="M130.036,123.822a3.387,3.387,0,0,1,2.339.948l1.08,1.051a1.634,1.634,0,0,1-.038,2.388,1.837,1.837,0,0,1-1.266.482,1.809,1.809,0,0,1-1.249-.506l-.922-.9-9.8,9.074,6.923,6.745,2.8-2.593a1.832,1.832,0,0,1,1.265-.481,1.813,1.813,0,0,1,1.25.505,1.634,1.634,0,0,1-.039,2.389l-2.962,2.743a3.419,3.419,0,0,1-2.369.9,3.377,3.377,0,0,1-2.341-.948l-7.236-7.051a3.04,3.04,0,0,1-.938-2.246,3.084,3.084,0,0,1,1.01-2.228l10.119-9.373A3.433,3.433,0,0,1,130.036,123.822Z" transform="translate(-116.536 -123.822)"/></g><g transform="translate(11.607 6.178)"><path class="c" d="M175.274,150.417a1.775,1.775,0,0,1,1.249.522,1.7,1.7,0,0,1,.5,1.236,1.721,1.721,0,0,1-.54,1.225l-1.338,1.277,9.5,9.539,7.138-6.812-1.368-1.374a1.716,1.716,0,0,1,.038-2.461,1.808,1.808,0,0,1,2.513.025l1.526,1.533a3.186,3.186,0,0,1,.938,2.314,3.228,3.228,0,0,1-1.01,2.3l-7.461,7.12a3.369,3.369,0,0,1-2.37.93,3.329,3.329,0,0,1-2.341-.977l-9.814-9.853a3.189,3.189,0,0,1-.938-2.315,3.23,3.23,0,0,1,1.01-2.3l1.5-1.431A1.794,1.794,0,0,1,175.274,150.417Z" transform="translate(-171.499 -150.417)"/></g><circle class="a" cx="2.082" cy="2.082" r="2.082" transform="translate(92.967 4.466)"/><g transform="translate(39.265 3.797)"><path class="d" d="M317.511,151.041a3.536,3.536,0,0,1-.243,1.839c-.352.73-1.244,1-3.272,1-1.92,0-2.731-.243-3.137-.974-.406-.7-.487-1.352-.487-4.462,0-3.84.081-4.435.649-5.03.487-.487,1.325-.676,3.11-.676,1.893,0,2.6.189,2.948.811.216.406.27.676.3,1.974h4.138a17.756,17.756,0,0,0-.189-2.731,3.722,3.722,0,0,0-2.191-3.083c-1-.46-1.839-.568-4.354-.568-4.3,0-5.679.324-7.085,1.677-1.217,1.163-1.623,2.65-1.623,6,0,2.515.108,4.895.243,6.058a5.111,5.111,0,0,0,1.731,3.3c1.325,1.055,2.3,1.271,5.733,1.271a30.363,30.363,0,0,0,3.921-.163,5.546,5.546,0,0,0,2.515-1.163c1.109-.974,1.406-1.974,1.406-4.868v-.568h-4.11Z" transform="translate(-306.072 -139.142)"/><path class="e" d="M400.625,151.572c0,2.434-.46,2.813-3.381,2.813-3.137,0-3.651-.352-3.651-2.623v-11.98h-4.164v11.98c0,3.38.568,4.679,2.515,5.517,1.109.514,2.434.676,5.219.676,3.029,0,4.137-.163,5.3-.785a4.088,4.088,0,0,0,2.163-3.245c.081-.568.162-1.974.162-2.461V139.782h-4.164Z" transform="translate(-371.826 -139.647)"/><path class="f" d="M488.3,148.625v-.081a3.468,3.468,0,0,0,1.758-.757c.758-.622,1.055-1.515,1.055-3.245,0-2.136-.568-3.461-1.785-4.137a7.3,7.3,0,0,0-3.6-.622H476.37V157.82H486c4.111,0,5.49-1.244,5.49-4.922C491.487,149.95,490.7,148.922,488.3,148.625Zm-7.761-5.409h4.381c1.677,0,2.055.325,2.055,1.866,0,1-.189,1.541-.676,1.812-.352.216-.487.243-2.137.271h-3.624Zm3.489,11.169h-3.489v-4.273h3.948c1.6.027,1.677.027,2.028.162.622.27.839.811.839,2.055C487.349,154.061,486.835,154.385,484.023,154.385Z" transform="translate(-440.406 -139.647)"/><rect class="g" width="4.165" height="12.377" transform="translate(53.404 5.796)"/><path class="h" d="M601.638,151.041a3.537,3.537,0,0,1-.243,1.839c-.352.73-1.244,1-3.272,1-1.92,0-2.732-.243-3.137-.974-.406-.7-.487-1.352-.487-4.462,0-3.84.081-4.435.649-5.03.487-.487,1.325-.676,3.11-.676,1.893,0,2.6.189,2.948.811.216.406.27.676.3,1.974h4.138a17.745,17.745,0,0,0-.189-2.731,3.722,3.722,0,0,0-2.191-3.083c-1-.46-1.839-.568-4.354-.568-4.3,0-5.679.324-7.085,1.677-1.217,1.163-1.623,2.65-1.623,6,0,2.515.108,4.895.244,6.058a5.11,5.11,0,0,0,1.731,3.3c1.325,1.055,2.3,1.271,5.733,1.271a30.363,30.363,0,0,0,3.921-.163,5.544,5.544,0,0,0,2.515-1.163c1.109-.974,1.406-1.974,1.406-4.868v-.568h-4.11Z" transform="translate(-530.197 -139.142)"/><path class="i" d="M684.6,139.764c-1.055-.46-2.244-.622-4.786-.622a21.872,21.872,0,0,0-3.894.27,5.5,5.5,0,0,0-3.434,2.109c-.892,1.271-1.109,2.812-1.109,7.518a22.158,22.158,0,0,0,.189,3.678,4.912,4.912,0,0,0,2.488,3.84c1.136.649,2.515.893,5.354.893a22.31,22.31,0,0,0,3.894-.271,5.3,5.3,0,0,0,3.542-2.271c.785-1.325.974-2.542.974-6.625a25.674,25.674,0,0,0-.216-4.489A4.918,4.918,0,0,0,684.6,139.764Zm-1.379,12.683c-.433,1.136-1.109,1.433-3.353,1.433-2.326,0-3.083-.135-3.543-.676-.568-.676-.7-1.46-.7-4.354,0-4.218.108-4.868.838-5.517.541-.487,1.163-.622,3.056-.622,2.163,0,2.867.135,3.326.676.649.757.73,1.244.73,4.84C683.574,150.987,683.52,151.636,683.223,152.447Z" transform="translate(-594.232 -139.142)"/><path class="j" d="M775.735,139.782l-2.38,6.761c-.378,1.054-.568,1.7-1.271,4.165l-.406,1.406h-.162c-1.054-3.57-1.325-4.408-1.731-5.6l-2.434-6.734h-6.6V157.82h4.111v-7.572c0-1.271-.027-2.082-.216-5.165l-.081-1.7h.135l.514,1.65c.974,3,1.19,3.624,1.677,4.976l2.92,7.815h3.651l2.894-7.842c.433-1.217.7-2.028,1.622-4.976l.514-1.677h.135l-.081,1.731c-.162,3.11-.189,3.732-.189,5.192v7.572h4.111V139.782Z" transform="translate(-664.733 -139.647)"/></g></svg>