<svg xmlns="http://www.w3.org/2000/svg" width="24" height="24" viewBox="0 0 24 24"><defs><style>.a{fill:#b3b3b3;}.b{fill:none;}</style></defs><path class="a" d="M17.971,8.014,15.725,6.8,8.9,10.6l2.7,1.463.352-.19a5.049,5.049,0,0,1,2.025-1.1l3.986-2.159a.34.34,0,0,0,0-.6Zm-1.239,2.775a5.042,5.042,0,0,1,1.483.7V9.965ZM5.244,8.613,7.528,9.852l6.821-3.8L11.922,4.737a.662.662,0,0,0-.629,0L5.244,8.014a.34.34,0,0,0-.137.461A.343.343,0,0,0,5.244,8.613Zm5.626,4.613L5,9.965v5.558a.66.66,0,0,0,.34.578l5.607,3.115v-.981A5.063,5.063,0,0,1,10.87,13.226Zm4.454-1.235A3.675,3.675,0,1,0,19,15.667a3.676,3.676,0,0,0-3.676-3.676Zm2.065,3.882a.207.207,0,0,1-.206.207H15.737v1.445a.207.207,0,0,1-.206.207h-.413a.207.207,0,0,1-.206-.207V16.08H13.466a.207.207,0,0,1-.206-.207V15.46a.206.206,0,0,1,.206-.206h1.446V13.808a.206.206,0,0,1,.206-.206h.413a.206.206,0,0,1,.206.206v1.446h1.446a.206.206,0,0,1,.206.206Z"/><rect class="b" width="24" height="24" transform="translate(0 0)"/></svg>